Coordinates
version=1
nRows=24
nColumns=24
inDegrees=yes

Units are S.I. units (second, meters, Newtons, ...)
Angles are in degrees.

endheader
time	pelvis_tilt	pelvis_list	pelvis_rotation	pelvis_tx	pelvis_ty	pelvis_tz	hip_flexion_r	hip_adduction_r	hip_rotation_r	knee_angle_r	ankle_angle_r	subtalar_angle_r	mtp_angle_r	hip_flexion_l	hip_adduction_l	hip_rotation_l	knee_angle_l	ankle_angle_l	subtalar_angle_l	mtp_angle_l	lumbar_extension	lumbar_bending	lumbar_rotation
      1.42483333	      2.42095947	     10.11122632	     -4.63312397	      0.30606320	      1.00891179	      0.31332408	     15.98466257	    -12.97756204	      1.39772181	    -74.89127391	     -9.27501088	    -10.37567129	      5.32659164	      5.22852539	     15.57835074	      3.53236403	    -10.26104785	      1.43982877	    -18.87426634	     -2.74818175	    -14.69990123	     -5.91467970	     -2.50353134
      1.42900000	      2.39854665	      9.90588140	     -4.53980594	      0.31086417	      1.00979811	      0.31290845	     16.55147881	    -12.69147630	      1.28390084	    -74.64392866	     -8.68243837	    -10.61778973	      5.32066702	      4.68590821	     15.39737896	      3.71801391	     -9.82654998	      1.50747808	    -18.76001649	     -2.74575699	    -14.70563497	     -5.60666059	     -2.67185301
      1.43316667	      2.42663490	      9.70445269	     -4.45426328	      0.31570269	      1.01071969	      0.31249951	     17.04110033	    -12.41798346	      1.16245747	    -74.32243012	     -8.12969489	    -10.83742207	      5.28723540	      4.05561702	     15.22487814	      3.95765236	     -9.32280954	      1.54264008	    -18.73118015	     -2.74552913	    -14.74250069	     -5.29593764	     -3.02084466
      1.43733333	      2.41694198	      9.50054970	     -4.36151737	      0.32051043	      1.01155437	      0.31208784	     17.56042285	    -12.13500687	      1.03848454	    -73.95238093	     -7.51450340	    -11.06679234	      5.26110914	      3.48993415	     15.04049827	      4.14386813	     -8.86079784	      1.55419346	    -18.66008213	     -2.74584905	    -14.76329195	     -4.98850058	     -3.18041957
      1.44150000	      2.45975473	      9.30317375	     -4.26729268	      0.32536717	      1.01242672	      0.31167951	     17.99417805	    -11.87132198	      0.89564085	    -73.50794524	     -6.92187035	    -11.25550604	      5.20431430	      2.84204068	     14.86581744	      4.37142902	     -8.35097886	      1.56947959	    -18.63748067	     -2.74747200	    -14.80966086	     -4.69839559	     -3.46984998
      1.44566667	      2.47045837	      9.10220071	     -4.16493620	      0.33020648	      1.01321411	      0.31126853	     18.44794543	    -11.59796091	      0.75173983	    -73.01063280	     -6.30123766	    -11.45278300	      5.13168665	      2.24360275	     14.68043477	      4.57448779	     -7.86830454	      1.57635044	    -18.58929395	     -2.75031716	    -14.83325093	     -4.39956286	     -3.69337421
      1.44983333	      2.44460638	      8.90208877	     -4.05919680	      0.33502898	      1.01389461	      0.31086560	     18.93034794	    -11.31829366	      0.61254849	    -72.46598068	     -5.65354024	    -11.63925493	      5.09728496	      1.70982664	     14.48747244	      4.71990806	     -7.43227082	      1.60116356	    -18.48338695	     -2.75057091	    -14.83265404	     -4.11363696	     -3.80165929
      1.45400000	      2.47319164	      8.71111653	     -3.96103781	      0.33987560	      1.01460231	      0.31046594	     19.33564230	    -11.06087154	      0.46568367	    -71.85911200	     -5.03298066	    -11.77906159	      5.01215906	      1.09265413	     14.30732587	      4.91683600	     -6.94458508	      1.63888185	    -18.40861447	     -2.75255622	    -14.86787315	     -3.81117539	     -4.07359619
      1.45816667	      2.49321392	      8.51279573	     -3.86112736	      0.34471980	      1.01526757	      0.31008610	     19.72982535	    -10.78913919	      0.32246353	    -71.19111203	     -4.39704188	    -11.90694850	      4.92789157	      0.49763060	     14.11329455	      5.08591146	     -6.48218181	      1.67673469	    -18.31234734	     -2.75423378	    -14.90312979	     -3.53133732	     -4.26487784
      1.46233333	      2.49355693	      8.32363391	     -3.75367206	      0.34955763	      1.01583290	      0.30970233	     20.13333728	    -10.52935276	      0.17544793	    -70.48061229	     -3.75127157	    -12.02301393	      4.82766116	     -0.06424798	     13.92451770	      5.24080502	     -6.03838754	      1.71670128	    -18.20733091	     -2.75587706	    -14.91605944	     -3.24483074	     -4.46046288
      1.46650000	      2.50848748	      8.15024634	     -3.65566114	      0.35440275	      1.01636187	      0.30933695	     20.51000345	    -10.28758895	      0.03766888	    -69.71943607	     -3.10234850	    -12.11332984	      4.73215912	     -0.63644945	     13.75056836	      5.37943927	     -5.60039513	      1.76347625	    -18.09000834	     -2.75727181	    -14.93990899	     -2.99304127	     -4.62770780
      1.47066667	      2.48588567	      7.97108454	     -3.54698367	      0.35924329	      1.01680344	      0.30898379	     20.90716529	    -10.03273148	     -0.10025690	    -68.90383409	     -2.44405499	    -12.22126970	      4.68062142	     -1.14903579	     13.56381979	      5.48970500	     -5.20010805	      1.79804999	    -17.95907435	     -2.75721276	    -14.92969657	     -2.74365818	     -4.72511905
      1.47483333	      2.51969800	      7.80423399	     -3.45931251	      0.36410123	      1.01724741	      0.30863666	     21.23380742	     -9.80096249	     -0.22926489	    -68.04097749	     -1.82727790	    -12.25371530	      4.56486846	     -1.74347097	     13.39339363	      5.63791353	     -4.75051622	      1.87167658	    -17.83766376	     -2.75702496	    -14.97384666	     -2.48085107	     -4.95662792
      1.47900000	      2.48865298	      7.64461543	     -3.35508690	      0.36894349	      1.01755063	      0.30830301	     21.61582989	     -9.56759593	     -0.35398174	    -67.13429463	     -1.18748052	    -12.32287326	      4.50831178	     -2.23228637	     13.22289247	      5.74033444	     -4.37021528	      1.91389388	    -17.71095827	     -2.75613400	    -14.95051821	     -2.25534275	     -5.04404423
      1.48316667	      2.51324482	      7.48344476	     -3.26100112	      0.37379669	      1.01789011	      0.30798959	     21.91586292	     -9.33888209	     -0.47793203	    -66.16520111	     -0.58318247	    -12.33284206	      4.43351427	     -2.78983713	     13.05140529	      5.86115493	     -3.97157284	      1.98013010	    -17.58880417	     -2.75470838	    -14.98235659	     -2.02570203	     -5.19720688
      1.48733333	      2.54233913	      7.35214183	     -3.18010739	      0.37865925	      1.01814072	      0.30767128	     22.21093285	     -9.14595761	     -0.58354825	    -65.17101639	     -0.00695274	    -12.32624013	      4.31386729	     -3.36051897	     12.91228562	      5.99977143	     -3.54576750	      2.05386517	    -17.47619500	     -2.75357139	    -15.02197941	     -1.81059291	     -5.39792352
      1.49150000	      2.52395881	      7.20919437	     -3.08552509	      0.38351795	      1.01830944	      0.30738425	     22.53009520	     -8.93051875	     -0.68996934	    -64.11367006	      0.56511449	    -12.35154812	      4.24723226	     -3.84584196	     12.75392684	      6.10407711	     -3.19257788	      2.10193857	    -17.36735924	     -2.75237890	    -15.00947919	     -1.61174620	     -5.48414296
      1.49566667	      2.56791684	      7.08988494	     -3.01080088	      0.38837826	      1.01846425	      0.30710398	     22.77872859	     -8.74991785	     -0.78309371	    -63.02561706	      1.08715437	    -12.31851428	      4.12136923	     -4.42067686	     12.62383907	      6.24469684	     -2.78401776	      2.17873580	    -17.27481768	     -2.75045277	    -15.06591324	     -1.41679593	     -5.67008879
      1.49983333	      2.53340068	      6.97412476	     -2.91915321	      0.39322999	      1.01848075	      0.30682809	     23.09197045	     -8.56517233	     -0.87215189	    -61.88719544	      1.60028727	    -12.31579410	      4.04891898	     -4.87442508	     12.49201859	      6.35727089	     -2.45023352	      2.23329737	    -17.18817117	     -2.74915833	    -15.03500548	     -1.24781040	     -5.75388849
      1.50400000	      2.54539998	      6.86656651	     -2.84041981	      0.39810075	      1.01850020	      0.30657112	     23.33943504	     -8.39361961	     -0.95336352	    -60.70474228	      2.06626868	    -12.28901273	      3.97346638	     -5.38568339	     12.37061174	      6.48436842	     -2.10037743	      2.30134780	    -17.10905863	     -2.74775928	    -15.05558544	     -1.07912341	     -5.87087113
      1.50816667	      2.53224805	      6.77688717	     -2.76320846	      0.40296618	      1.01841497	      0.30631967	     23.60569274	     -8.24014617	     -1.02392316	    -59.48911132	      2.49505614	    -12.26421605	      3.90142710	     -5.86332656	     12.26616737	      6.61635206	     -1.75750987	      2.37176447	    -17.04319155	     -2.74631854	    -15.05003918	     -0.93007429	     -5.98585467
      1.51233333	      2.51943294	      6.68861725	     -2.68693475	      0.40783481	      1.01829290	      0.30608576	     23.85265270	     -8.08940853	     -1.09389122	    -58.22437025	      2.87800575	    -12.23598168	      3.82792133	     -6.33805343	     12.16156608	      6.75339818	     -1.41934518	      2.44384603	    -16.99521078	     -2.74569342	    -15.05088311	     -0.78627574	     -6.10301833
      1.51650000	      2.53996321	      6.60633791	     -2.61740911	      0.41270703	      1.01817030	      0.30586065	     24.04213812	     -7.94632720	     -1.15342664	    -56.90746961	      3.21056130	    -12.20689999	      3.74274563	     -6.84357963	     12.06490587	      6.90366783	     -1.09202555	      2.51068556	    -16.96772671	     -2.74628509	    -15.07472594	     -0.64078900	     -6.23340076
      1.52066667	      2.56477084	      6.54721197	     -2.56072210	      0.41758123	      1.01795842	      0.30564913	     24.22561281	     -7.83200707	     -1.20844606	    -55.57104545	      3.48998314	    -12.17876136	      3.61806368	     -7.36513795	     11.99357565	      7.06966667	     -0.73231323	      2.57594317	    -16.98623577	     -2.74996372	    -15.11679731	     -0.53455252	     -6.39084616
